Coordinates
version=1
nRows=65
nColumns=12
inDegrees=yes

Units are S.I. units (second, meters, Newtons, ...)
Angles are in degrees

endheader
time	SC_y	SC_z	SC_x	AC_y	AC_z	AC_x	GH_y	GH_z	GH_yy	EL_x	PS_y
       0.0              -37.25          3.936          16.11          67.09          4.667         -14.13          89.84          29.65          -31.1          111.1          142.3
 0.0006461              -37.25          3.937          16.12          67.09          4.665         -14.13          89.83          29.65         -31.08          111.1          142.3
  0.001292              -37.25          3.937          16.12          67.08          4.663         -14.13          89.83          29.65         -31.05          111.1          142.2
  0.001938              -37.25          3.938          16.13          67.08          4.661         -14.12          89.83          29.65         -31.03          111.1          142.2
  0.002584              -37.25          3.939          16.14          67.07          4.659         -14.12          89.83          29.65         -31.01          111.1          142.2
   0.00323              -37.25           3.94          16.15          67.06          4.656         -14.12          89.83          29.65         -30.98          111.1          142.2
  0.003876              -37.25          3.941          16.16          67.06          4.654         -14.11          89.83          29.65         -30.95          111.1          142.2
  0.004523              -37.25          3.942          16.17          67.05          4.651         -14.11          89.83          29.65         -30.92          111.1          142.2
  0.005169              -37.25          3.943          16.18          67.04          4.648          -14.1          89.83          29.65         -30.89          111.0          142.2
  0.005815              -37.25          3.944          16.19          67.04          4.645          -14.1          89.83          29.65         -30.85          111.0          142.2
  0.006461              -37.25          3.945           16.2          67.03          4.641         -14.09          89.83          29.65         -30.82          111.0          142.1
  0.007107              -37.25          3.946          16.22          67.02          4.638         -14.08          89.83          29.65         -30.78          111.0          142.1
  0.007753              -37.25          3.947          16.23          67.01          4.634         -14.08          89.83          29.65         -30.73          111.0          142.1
  0.008399              -37.25          3.949          16.24           67.0           4.63         -14.07          89.83          29.65         -30.69          110.9          142.1
  0.009045              -37.26          3.951          16.26          66.99          4.625         -14.06          89.83          29.65         -30.64          110.9          142.0
  0.009691              -37.26          3.952          16.28          66.98           4.62         -14.05          89.83          29.65         -30.58          110.9          142.0
   0.01034              -37.26          3.954           16.3          66.96          4.615         -14.04          89.83          29.65         -30.52          110.8          142.0
   0.01098              -37.26          3.956          16.32          66.95          4.609         -14.03          89.83          29.65         -30.46          110.8          142.0
   0.01163              -37.26          3.958          16.34          66.93          4.602         -14.02          89.83          29.64         -30.38          110.8          141.9
   0.01228              -37.26          3.961          16.37          66.91          4.595         -14.01          89.83          29.64         -30.31          110.7          141.9
   0.01292              -37.26          3.964           16.4           66.9          4.588          -14.0          89.83          29.64         -30.22          110.7          141.9
   0.01357              -37.26          3.966          16.43          66.87          4.579         -13.98          89.83          29.64         -30.13          110.6          141.8
   0.01421              -37.26           3.97          16.46          66.85           4.57         -13.97          89.83          29.64         -30.02          110.6          141.8
   0.01486              -37.27          3.973           16.5          66.83           4.56         -13.95          89.83          29.64         -29.91          110.5          141.7
   0.01551              -37.27          3.977          16.54           66.8          4.548         -13.93          89.83          29.64         -29.78          110.5          141.6
   0.01615              -37.27          3.982          16.59          66.76          4.535         -13.91          89.83          29.64         -29.64          110.4          141.6
    0.0168              -37.27          3.987          16.64          66.73          4.521         -13.88          89.82          29.64         -29.48          110.3          141.5
   0.01744              -37.28          3.993           16.7          66.69          4.504         -13.85          89.82          29.64          -29.3          110.2          141.4
   0.01809              -37.28          3.999          16.77          66.64          4.486         -13.82          89.82          29.63         -29.09          110.1          141.3
   0.01874              -37.28          4.006          16.84          66.59          4.465         -13.79          89.82          29.63         -28.86          110.0          141.2
   0.01938              -37.29          4.014          16.93          66.53          4.442         -13.75          89.82          29.63          -28.6          109.8          141.1
   0.02003              -37.29          4.024          17.03          66.46          4.414          -13.7          89.82          29.63          -28.3          109.7          140.9
   0.02067               -37.3          4.035          17.15          66.39          4.383         -13.65          89.81          29.62         -27.95          109.5          140.8
   0.02132               -37.3          4.048          17.28           66.3          4.346         -13.58          89.81          29.62         -27.54          109.3          140.6
   0.02197              -37.31          4.062          17.43          66.19          4.304         -13.51          89.81          29.62         -27.07          109.0          140.3
   0.02261              -37.32           4.08          17.62          66.07          4.253         -13.42           89.8          29.61         -26.51          108.8          140.1
   0.02326              -37.33          4.101          17.84          65.92          4.193         -13.32           89.8          29.61         -25.84          108.4          139.8
    0.0239              -37.34          4.126           18.1          65.74          4.121          -13.2          89.79           29.6         -25.04          108.0          139.4
   0.02455              -37.36          4.156          18.42          65.52          4.034         -13.05          89.79          29.59         -24.08          107.5          138.9
    0.0252              -37.37          4.193           18.8          65.26          3.928         -12.86          89.78          29.58          -22.9          106.9          138.4
   0.02584               -37.4          4.239          19.28          64.93          3.797         -12.64          89.77          29.57         -21.45          106.1          137.7
   0.02649              -37.43          4.295          19.88          64.53          3.634         -12.36          89.76          29.56         -19.63          105.2          136.8
   0.02714              -37.46          4.367          20.63          64.02          3.428          -12.0          89.74          29.54         -17.35          104.0          135.7
   0.02778              -37.51          4.458          21.59          63.37          3.166         -11.55          89.72          29.51         -14.45          102.5          134.3
   0.02843              -37.56          4.575          22.81          62.54          2.831         -10.98           89.7          29.48         -10.73          100.5          132.6
   0.02907              -37.64          4.724          24.38          61.47          2.402         -10.24          89.67          29.44         -5.958          98.07          130.3
   0.02972              -37.73          4.915          26.38          60.11          1.853         -9.295          89.62          29.39         0.1353           94.9          127.4
   0.03037              -37.85          5.156           28.9           58.4          1.162         -8.108          89.57          29.33          7.797          90.91          123.7
   0.03101              -37.99          5.448          31.97          56.31          0.321         -6.662          89.51          29.25          17.13          86.05          119.3
   0.03166              -38.16          5.788          35.53          53.89        -0.6541         -4.986          89.44          29.17          27.96          80.43          114.1
    0.0323              -38.34          6.155          39.38          51.28          -1.71         -3.171          89.36          29.07          39.67          74.33          108.6
   0.03295              -38.52          6.523          43.24          48.66         -2.766         -1.356          89.28          28.97          51.39          68.23          103.0
    0.0336              -38.69          6.862          46.79          46.24         -3.741         0.3208          89.21          28.88          62.21          62.61          97.82
   0.03424              -38.83          7.155          49.86          44.15         -4.582          1.767          89.14          28.81          71.55          57.75          93.38
   0.03489              -38.95          7.395          52.38          42.44         -5.273          2.954          89.09          28.74          79.21          53.76          89.73
   0.03553              -39.05          7.586          54.39          41.08         -5.822          3.898          89.05          28.69          85.31          50.59          86.83
   0.03618              -39.12          7.735          55.96          40.01         -6.251          4.637          89.02          28.65          90.08          48.11          84.55
   0.03683              -39.18          7.852          57.18          39.18         -6.586          5.212          88.99          28.62          93.79          46.18          82.78
   0.03747              -39.22          7.943          58.13          38.53         -6.848          5.662          88.97           28.6           96.7          44.67           81.4
   0.03812              -39.26          8.015          58.88          38.02         -7.054          6.016          88.96          28.58          98.98          43.48          80.31
   0.03876              -39.29          8.072          59.48          37.62         -7.217          6.297          88.95          28.57          100.8          42.54          79.45
   0.03941              -39.31          8.117          59.96          37.29         -7.348          6.522          88.94          28.55          102.2          41.78          78.76
   0.04006              -39.33          8.154          60.35          37.03         -7.454          6.705          88.93          28.54          103.4          41.17           78.2
    0.0407              -39.34          8.184          60.66          36.81         -7.541          6.854          88.92          28.54          104.4          40.67          77.74
   0.04135              -39.35          8.209          60.93          36.63         -7.613          6.978          88.92          28.53          105.2          40.25          77.36
